<svg width="33" height="33" viewBox="0 0 33 33" fill="none" xmlns="http://www.w3.org/2000/svg">
<path d="M24.1011 16.5C24.1011 16.0945 24.3801 15.7398 24.7776 15.6478C27.7445 14.9559 29.8158 12.3427 29.8158 9.28711C29.8158 5.68162 26.89 2.75 23.2975 2.75C20.2318 2.75 17.5474 4.93318 16.9193 7.93882C16.8349 8.34341 16.4783 8.63464 16.0639 8.63464C15.6495 8.63464 15.2929 8.34334 15.2085 7.93868L24.1011 16.5ZM24.1011 16.5C24.1011 16.9052 24.3798 17.2598 24.7769 17.3521L24.1011 16.5ZM7.35008 17.3522C7.74759 17.2602 8.0266 16.9055 8.0266 16.5C8.0266 16.0948 7.74793 15.7402 7.35082 15.6479L7.35008 17.3522ZM7.35008 17.3522C4.38316 18.0441 2.31186 20.6573 2.31186 23.7129C2.31186 27.3184 5.23764 30.25 8.83015 30.25C11.8957 30.25 14.5801 28.067 15.2085 25.0615L7.35008 17.3522ZM16.0639 24.3654C16.4783 24.3654 16.8349 24.6566 16.9193 25.0612L16.0639 24.3654ZM16.0639 24.3654C15.6495 24.3654 15.293 24.6566 15.2085 25.0611L16.0639 24.3654ZM2.31186 9.28711C2.31186 12.3427 4.38316 14.9559 7.35008 15.6478L2.31186 9.28711ZM2.31186 9.28711C2.31186 5.68162 5.23764 2.75 8.83015 2.75M2.31186 9.28711L8.83015 2.75M8.83015 2.75C11.8957 2.75 14.5801 4.93301 15.2085 7.93851L8.83015 2.75ZM4.75833 16.5C2.20788 17.9359 0.563843 20.6523 0.563843 23.7129C0.563843 28.2816 4.27048 32 8.83015 32C11.8854 32 14.636 30.2954 16.0639 27.7195C17.4916 30.2954 20.2421 32 23.2975 32C27.8572 32 31.5638 28.2816 31.5638 23.7129C31.5638 20.6523 29.9198 17.9359 27.3694 16.5C29.9198 15.0641 31.5638 12.3477 31.5638 9.28711C31.5638 4.7184 27.8572 1 23.2975 1C20.2421 1 17.4916 2.70458 16.0639 5.2805C14.636 2.70458 11.8854 1 8.83015 1C4.27048 1 0.563843 4.7184 0.563843 9.28711C0.563843 12.3477 2.20788 15.0641 4.75833 16.5ZM24.7776 17.3522C27.7445 18.0441 29.8158 20.6573 29.8158 23.7129C29.8158 27.3184 26.89 30.25 23.2975 30.25C20.2319 30.25 17.5475 28.0669 16.9194 25.0613L24.7776 17.3522Z" fill="#3DB370" stroke="#3DB370"/>
</svg>
